<?xml version="1.0" encoding="utf-8"?>
<!-- Generator: Adobe Illustrator 24.3.0, SVG Export Plug-In . SVG Version: 6.00 Build 0)  -->
<svg version="1.1" id="Calque_1" xmlns="http://www.w3.org/2000/svg" xmlns:xlink="http://www.w3.org/1999/xlink" x="0px" y="0px"
	 viewBox="0 0 116 50" style="enable-background:new 0 0 116 50;" xml:space="preserve">
<style type="text/css">
	.st0{fill:#007C82;}
	.st1{fill:#25368B;}
	.st2{fill:#FFFFFF;}
	.st3{fill:#E53812;}
</style>
<path class="st0" d="M52.5-0.4v10.5h10.8v40.3h52V-0.4H52.5z"/>
<path class="st1" d="M0.7-0.4v50.8h62.7V40.1H52.5V-0.4H0.7z"/>
<path class="st2" d="M39.7,35.2l-1,3.8c-2.8,1.3-5.8,2-9,2c-9.7,0-17-6-17-15.3c0-11.7,8.2-17.2,18-17.2c3.2,0,6.3,0.7,9.3,2.2
	c-0.3,1.5-0.7,3-1,4.7h-0.7c-1.7-2.5-4.5-4-7.5-4.2c-7.5,0-10.5,7.2-10.5,13.8c0,7.8,3.8,13.2,10.8,13.2c3-0.2,6-1.3,8.2-3.3
	L39.7,35.2L39.7,35.2z"/>
<path class="st2" d="M103.2,35.2l-1,3.8c-2.8,1.3-5.8,2-9,2c-9.7,0-17-6-17-15.3c0-11.8,8.2-17.2,18-17.2c3.2,0,6.3,0.7,9.3,2.2
	c-0.3,1.5-0.7,3-1,4.7h-0.7c-1.7-2.5-4.5-4-7.5-4.2c-7.5,0-10.5,7.2-10.5,13.8c0,7.8,3.7,13.2,10.8,13.2c3-0.2,6-1.3,8.2-3.3
	L103.2,35.2L103.2,35.2z"/>
<path class="st3" d="M52.5,10.1h10.8v30H52.5V10.1z"/>
</svg>
