<svg id="Calque_1" data-name="Calque 1" xmlns="http://www.w3.org/2000/svg" viewBox="0 0 208 26"><defs><style>.cls-1{fill:#164194;}.cls-2{fill:#e30613;}</style></defs><path class="cls-1" d="M153.23,9.73V18.1c0,1.93.14,4.37-2.85,4.37s-2.85-2.44-2.85-4.37V9.73h-4.08v10c0,2.32,1.12,6.18,5.39,6.18a6.36,6.36,0,0,0,4.36-1.73s0,0,.05,0l.21,1.41h3.85V9.73h-4.08"/><path class="cls-1" d="M179.78,9.73V18.1c0,1.93.15,4.37-2.85,4.37s-2.85-2.44-2.85-4.37V9.73H170v10c0,2.32,1.11,6.18,5.38,6.18a6.37,6.37,0,0,0,4.37-1.73l.05,0,.2,1.41h3.85V9.73h-4.07"/><path class="cls-1" d="M190.13,15.88a3.75,3.75,0,0,1,7.47,0Zm3.74-6.65a8,8,0,0,0-8,8.38c0,4.22,3.18,8.44,8,8.44,5.69,0,7.08-3.88,7.67-5.27h-4.35A3.25,3.25,0,0,1,194,22.67a3.89,3.89,0,0,1-3.88-3.88h11.68v-.71c0-5.56-3.73-8.85-7.88-8.85"/><path class="cls-1" d="M30.92,9.36h-.59a5,5,0,0,0-4.22,2L26,9.79H22V25.58h4.07V17.16c.12-2.53,1.12-4.24,4.81-4.24Z"/><path class="cls-1" d="M56,22.7c-1.74,0-3.75-1.39-3.75-5.11s2-5.07,3.75-5.07,3.75,1.34,3.75,5.07-2,5.11-3.75,5.11m3.57-11.81a6.69,6.69,0,0,0-4.56-1.78c-4.25,0-6.91,4-6.91,8.5S50.8,26,55.05,26A6.05,6.05,0,0,0,59.5,24l.24,1.55h3.95V4H59.61Z"/><path class="cls-1" d="M78.45,20.71V12.36h2.9V9.73h-2.9V4.56H74.37V9.73H72v2.63h2.35v7.86c0,2.66-.15,5.36,4.22,5.36h2.8v-3h-.9c-1.89,0-2-.84-2-1.89"/><path class="cls-1" d="M165.21,20.71V12.36h2.91V9.73h-2.91V4.56h-4.07V9.73h-2.36v2.63h2.36v7.86c0,2.66-.15,5.36,4.22,5.36h2.94v-3h-1.05c-1.88,0-2-.84-2-1.89"/><rect class="cls-1" x="66.43" y="4.01" width="4.08" height="3.51"/><polygon class="cls-1" points="43.3 3.56 38.41 3.56 36.92 7.75 40.34 7.75 43.3 3.56"/><rect class="cls-1" x="203.92" y="4.01" width="4.08" height="21.57"/><rect class="cls-1" x="66.43" y="9.73" width="4.08" height="15.85"/><polygon class="cls-1" points="129.32 19.3 124.8 4.01 118.46 4.01 118.46 25.58 122.53 25.58 122.53 9.76 127.18 25.58 131.54 25.58 136.11 9.76 136.11 25.58 140.18 25.58 140.18 4.01 133.82 4.01 129.32 19.3"/><path class="cls-1" d="M35,15.88a3.75,3.75,0,0,1,7.47,0Zm3.74-6.65a8,8,0,0,0-8,8.38c0,4.22,3.18,8.44,8,8.44,5.69,0,7.08-3.88,7.66-5.27H42.14a3.27,3.27,0,0,1-3.29,1.89A3.89,3.89,0,0,1,35,18.79H46.66v-.71c0-5.56-3.74-8.85-7.88-8.85"/><path class="cls-1" d="M10.75,22.42c-3.89,0-6.2-2.69-6.2-8,0-4.24,1.94-8,6.2-8a4.66,4.66,0,0,1,4.8,3.88h4.36a9,9,0,0,0-9.16-7.48C2.87,2.79,0,9.51,0,14.38c0,5.1,3.11,11.74,10.75,11.74,6.76,0,9.35-5.55,9.35-7.5H15.55c-.11.76-.79,3.8-4.8,3.8"/><path class="cls-2" d="M114.14,19.29,109.36,11a5.19,5.19,0,0,1-4.65,6.26,6.41,6.41,0,0,0-5.13-3,5.19,5.19,0,0,1,7.31-6.64,5.66,5.66,0,0,1,.88.64L102.94-.12H95.68L90.89,8.17a5.18,5.18,0,0,1,7.74.9,6.42,6.42,0,0,0,0,5.95,5.18,5.18,0,0,1-9.4-3,4.83,4.83,0,0,1,.11-1.08l-4.83,8.36,3.64,6.29h9.56a5.19,5.19,0,0,1-3.09-7.15,6.46,6.46,0,0,0,5.18-2.94,5.19,5.19,0,0,1,2.1,9.65,5.85,5.85,0,0,1-1,.44h9.65Z"/></svg>