<?xml version="1.0" encoding="utf-8"?>
<!-- Generator: Adobe Illustrator 20.0.0, SVG Export Plug-In . SVG Version: 6.00 Build 0)  -->
<svg version="1.1" id="Calque_1" xmlns="http://www.w3.org/2000/svg" xmlns:xlink="http://www.w3.org/1999/xlink" x="0px" y="0px"
	 viewBox="0 0 841.9 487" style="enable-background:new 0 0 841.9 487;" xml:space="preserve">
<style type="text/css">
	.st0{display:none;}
	.st1{display:inline;}
	.st2{fill:#009598;}
	.st3{fill:#006F4E;}
	.st4{fill:#ED1C24;}
	.st5{fill:#006645;}
	.st6{fill:#E20613;}
	.st7{fill:#008A91;}
</style>
<g id="Calque_1_1_" class="st0">
	<g id="Calque-1" transform="matrix(0.450728,0,0,0.450728,0,0)" class="st1">
		<path class="st2" d="M652.6,539.8h-26.8v-80.5h-27.9v-22.7h82.6v22.7h-27.9L652.6,539.8L652.6,539.8z"/>
		<path class="st2" d="M710.9,488.9c-2.6,0-4.8,0.4-6.8,1.3c-2,0.9-3.6,2-5,3.4s-2.4,3.1-3.1,5c-0.7,1.9-1.1,4-1.1,6.2
			c0,4.5,1.4,8.2,4.2,11.2s6.7,4.5,11.8,4.5s9.1-1.5,11.8-4.5c2.8-3,4.2-6.7,4.2-11.2c0-2.2-0.4-4.3-1.1-6.2c-0.7-1.9-1.8-3.6-3.1-5
			c-1.4-1.4-3-2.6-5-3.4C715.8,489.3,713.5,488.9,710.9,488.9 M710.9,467.3c5.7,0,11,0.8,16.2,2.5c5.1,1.6,9.6,4.1,13.5,7.2
			c3.9,3.2,7,7.1,9.2,11.8c2.3,4.7,3.4,10,3.4,16c0,5.9-1.1,11.2-3.4,15.9c-2.3,4.7-5.4,8.6-9.2,11.8c-3.9,3.2-8.4,5.6-13.5,7.2
			c-5.1,1.7-10.5,2.5-16.2,2.5s-11-0.8-16.1-2.5c-5.1-1.6-9.6-4-13.5-7.2s-7-7.1-9.3-11.7c-2.3-4.6-3.4-9.9-3.4-15.9
			s1.1-11.4,3.4-16c2.3-4.6,5.4-8.6,9.2-11.8c3.9-3.2,8.4-5.6,13.5-7.2C699.9,468.1,705.3,467.3,710.9,467.3"/>
		<path class="st2" d="M788.9,469.6v37.5c0,2.2,0.2,4.2,0.5,6.1c0.3,1.9,0.9,3.5,1.8,4.9c0.9,1.4,2.2,2.4,3.8,3.1
			c1.6,0.7,3.7,1.1,6.3,1.1c2.5,0,4.7-0.4,6.3-1.1c1.6-0.7,2.9-1.8,3.8-3.1c0.9-1.4,1.5-3,1.9-4.9c0.3-1.9,0.5-3.9,0.5-6.1v-37.5
			h24.9v42.3c0,5.8-0.9,10.5-2.9,14.4c-1.9,3.9-4.6,7-7.9,9.3c-3.4,2.3-7.3,4-11.8,5s-9.4,1.5-14.7,1.5s-10.2-0.5-14.8-1.5
			s-8.5-2.7-11.8-5s-5.9-5.4-7.9-9.3c-1.9-3.9-2.9-8.7-2.9-14.4v-42.3H788.9z"/>
		<path class="st2" d="M881.9,539.8H857v-49.7h-8.1v-20.5h8.1v-21.1h24.9v21.1H896v20.5h-14.1V539.8z"/>
		<path class="st2" d="M952.9,494.5c-0.6-3.4-2.3-6.1-5-8.1s-5.7-3-9.1-3c-3.7,0-6.8,0.9-9.6,2.8c-2.7,1.9-4.5,4.6-5.2,8.3H952.9z
			 M976,508.9h-52.4c0,5.1,1.3,9,3.9,11.6c2.6,2.6,6.5,4,11.7,4c2.6,0,5-0.5,6.9-1.4c2-1,3.6-2.6,5-5H975c-1,4.1-2.7,7.7-5,10.7
			c-2.3,3.1-5.1,5.6-8.3,7.5c-3.2,2-6.8,3.4-10.6,4.4s-7.8,1.4-11.8,1.4c-5.8,0-11.2-0.8-16.2-2.5c-5-1.6-9.3-4-12.9-7.2
			c-3.6-3.1-6.4-7-8.5-11.7s-3.1-10-3.1-16c0-5.8,1-11.1,2.9-15.7c1.9-4.6,4.6-8.6,8-11.8s7.5-5.7,12.2-7.4s10-2.6,15.7-2.6
			c6.1,0,11.5,0.9,16.3,2.7c4.7,1.8,8.8,4.4,12,7.8c3.3,3.4,5.8,7.5,7.5,12.3s2.6,10.2,2.6,16.2v2.7H976z"/>
		<path class="st2" d="M1052,469.6v37.5c0,2.2,0.2,4.2,0.5,6.1c0.3,1.9,0.9,3.5,1.8,4.9s2.2,2.4,3.8,3.1c1.6,0.7,3.7,1.1,6.3,1.1
			c2.5,0,4.7-0.4,6.3-1.1c1.6-0.7,2.9-1.8,3.8-3.1c0.9-1.4,1.5-3,1.8-4.9s0.5-3.9,0.5-6.1v-37.5h24.9v42.3c0,5.8-1,10.5-2.9,14.4
			s-4.6,7-7.9,9.3c-3.4,2.3-7.3,4-11.8,5s-9.4,1.5-14.7,1.5c-5.3,0-10.2-0.5-14.8-1.5c-4.6-1-8.5-2.7-11.8-5s-6-5.4-7.9-9.3
			c-1.9-3.9-2.9-8.7-2.9-14.4v-42.3H1052z"/>
		<path class="st2" d="M1142.6,478.6h0.3c2.9-4.3,6.2-7.3,9.7-8.9c3.6-1.6,7.8-2.5,12.7-2.5c4.7,0,8.8,0.7,12.1,2.1
			c3.3,1.4,6,3.4,8.1,5.9c2.1,2.6,3.7,5.6,4.7,9.2c1,3.6,1.5,7.5,1.5,11.8v43.4h-24.9v-34.2v-5.6c0-2.2-0.3-4.2-1-6.2
			c-0.6-1.9-1.7-3.5-3.3-4.8c-1.6-1.3-3.9-1.9-7-1.9c-2.6,0-4.7,0.4-6.3,1.3c-1.6,0.9-3,2.1-4,3.6s-1.7,3.2-2.1,5.2s-0.6,4-0.6,6.2
			v36.4h-24.9v-70.2h24.9v9.2H1142.6z"/>
		<path class="st2" d="M1257.1,494.5c-0.6-3.4-2.3-6.1-5-8.1s-5.7-3-9.1-3c-3.7,0-6.9,0.9-9.6,2.8c-2.7,1.9-4.5,4.6-5.2,8.3H1257.1z
			 M1280.2,508.9h-52.4c0,5.1,1.3,9,3.9,11.6s6.5,4,11.7,4c2.6,0,4.9-0.5,6.9-1.4c2-1,3.6-2.6,5-5h24c-1,4.1-2.7,7.7-5,10.7
			c-2.3,3.1-5.1,5.6-8.3,7.5c-3.2,2-6.8,3.4-10.6,4.4c-3.8,1-7.8,1.4-11.8,1.4c-5.8,0-11.2-0.8-16.2-2.5c-5-1.6-9.3-4-12.9-7.2
			c-3.6-3.1-6.4-7-8.5-11.7c-2-4.7-3.1-10-3.1-16c0-5.8,1-11.1,2.9-15.7c1.9-4.6,4.6-8.6,8-11.8s7.5-5.7,12.2-7.4s10-2.6,15.7-2.6
			c6.1,0,11.5,0.9,16.3,2.7c4.7,1.8,8.8,4.4,12,7.8c3.3,3.4,5.8,7.5,7.5,12.3s2.6,10.2,2.6,16.2v2.7H1280.2z"/>
		<path class="st2" d="M1371,488.9c-2.6,0-4.8,0.4-6.8,1.3c-2,0.9-3.6,2-5,3.4s-2.4,3.1-3.1,5s-1.1,4-1.1,6.2
			c0,4.5,1.4,8.2,4.2,11.2c2.8,3,6.7,4.5,11.8,4.5c5.1,0,9.1-1.5,11.8-4.5c2.8-3,4.2-6.7,4.2-11.2c0-2.2-0.4-4.3-1.1-6.2
			s-1.8-3.6-3.1-5c-1.4-1.4-3-2.6-5-3.4C1375.8,489.3,1373.5,488.9,1371,488.9 M1330.9,436.6h24.9v39.8c2.6-3.1,5.9-5.4,9.8-6.9
			s7.9-2.3,12-2.3c5.2,0,10,1,14.3,3s8,4.7,11.1,8.2c3,3.4,5.4,7.4,7.2,11.9c1.7,4.5,2.6,9.3,2.6,14.3c0,5.1-0.9,9.9-2.6,14.4
			s-4.2,8.5-7.3,11.9c-3.1,3.4-6.8,6.1-11.2,8.1c-4.4,2-9.2,3-14.4,3c-4.1,0-8.1-0.8-12-2.5c-3.9-1.6-7-4.2-9.2-7.7h-0.3v7.8h-24.9
			V436.6z"/>
		<path class="st2" d="M1646.5,520.5c2.6,0,4.8-0.4,6.8-1.3c2-0.9,3.6-2,5-3.4s2.4-3.1,3.2-5c0.7-1.9,1.1-4,1.1-6.2
			c0-4.5-1.4-8.2-4.2-11.2c-2.8-3-6.7-4.5-11.8-4.5c-5.1,0-9.1,1.5-11.8,4.5c-2.8,3-4.2,6.7-4.2,11.2c0,2.2,0.4,4.2,1.1,6.2
			c0.7,1.9,1.8,3.6,3.2,5c1.4,1.4,3,2.6,5,3.4C1641.7,520.1,1643.9,520.5,1646.5,520.5 M1686.6,572.8h-24.9V533
			c-2.6,3.1-5.9,5.4-9.8,6.9s-7.9,2.3-12,2.3c-5.2,0-10-1-14.3-3s-8-4.7-11.1-8.1c-3.1-3.4-5.4-7.4-7.2-11.9
			c-1.7-4.5-2.6-9.3-2.6-14.3c0-5.1,0.9-9.9,2.6-14.4s4.1-8.5,7.2-11.9s6.9-6.1,11.2-8.1c4.4-2,9.2-3,14.4-3c4.1,0,8.1,0.8,12,2.5
			c3.9,1.6,7,4.2,9.2,7.7h0.3v-7.8h24.9v102.9H1686.6z"/>
		<path class="st2" d="M672.6,651.9c2-0.9,3.6-2,5-3.4s2.4-3.1,3.1-5c0.7-1.9,1.1-4,1.1-6.2c0-4.5-1.4-8.2-4.2-11.2
			s-6.7-4.5-11.8-4.5s-9.1,1.5-11.8,4.5c-2.8,3-4.2,6.7-4.2,11.2c0,2.2,0.4,4.2,1.1,6.2c0.7,1.9,1.8,3.6,3.1,5c1.4,1.4,3,2.6,5,3.4
			c2,0.9,4.2,1.3,6.8,1.3C668.4,653.2,670.6,652.8,672.6,651.9 M625.7,602.3h24.9v7.8h0.3c2.3-3.5,5.4-6,9.2-7.7
			c3.9-1.6,7.9-2.5,12-2.5c5.2,0,10,1,14.4,3s8.1,4.7,11.2,8.1c3.1,3.4,5.5,7.4,7.2,11.9s2.6,9.3,2.6,14.4c0,5-0.9,9.8-2.6,14.3
			c-1.7,4.5-4.1,8.5-7.2,11.9c-3.1,3.4-6.8,6.1-11.1,8.2c-4.3,2-9.1,3-14.3,3c-4.1,0-8.1-0.7-12-2.3c-3.9-1.5-7.1-3.8-9.8-6.9v39.8
			h-24.9L625.7,602.3L625.7,602.3z"/>
		<path class="st2" d="M1461.7,488.9c-2.6,0-4.8,0.4-6.8,1.3c-2,0.9-3.6,2-5,3.4s-2.4,3.1-3.2,5c-0.7,1.9-1.1,4-1.1,6.2
			c0,4.5,1.4,8.2,4.2,11.2c2.8,3,6.7,4.5,11.8,4.5c5.1,0,9.1-1.5,11.8-4.5c2.8-3,4.2-6.7,4.2-11.2c0-2.2-0.4-4.3-1.1-6.2
			s-1.8-3.6-3.2-5c-1.4-1.4-3-2.6-5-3.4C1466.5,489.3,1464.3,488.9,1461.7,488.9 M1501.8,539.8h-24.9V532h-0.3
			c-2.2,3.5-5.2,6-9.2,7.7c-3.9,1.7-7.9,2.5-12,2.5c-5.2,0-10-1-14.3-3s-8.1-4.7-11.2-8.1c-3.2-3.4-5.6-7.4-7.3-12
			c-1.7-4.6-2.6-9.3-2.6-14.4c0-5,0.9-9.8,2.6-14.3s4.1-8.5,7.2-11.9s6.8-6.1,11.1-8.2c4.3-2,9.1-3,14.3-3c4.1,0,8.1,0.7,12,2.3
			c3.9,1.5,7.1,3.8,9.8,6.9v-6.9h24.9L1501.8,539.8L1501.8,539.8z"/>
		<path class="st2" d="M1543.3,478.6h0.3c2.9-4.3,6.2-7.3,9.7-8.9c3.6-1.6,7.8-2.5,12.7-2.5c4.7,0,8.8,0.7,12.1,2.1
			c3.3,1.4,6,3.4,8.1,5.9c2.1,2.6,3.7,5.6,4.7,9.2c1,3.6,1.5,7.5,1.5,11.8v43.4h-24.9v-34.2v-5.6c0-2.2-0.3-4.2-1-6.2
			c-0.6-1.9-1.7-3.5-3.3-4.8c-1.6-1.3-3.9-1.9-7-1.9c-2.6,0-4.7,0.4-6.3,1.3c-1.6,0.9-3,2.1-4,3.6s-1.7,3.2-2.1,5.2s-0.6,4-0.6,6.2
			v36.4h-24.9v-70.2h24.9v9.2H1543.3z"/>
		<path class="st2" d="M1726.7,469.6v37.5c0,2.2,0.2,4.2,0.5,6.1c0.3,1.9,0.9,3.5,1.8,4.9s2.2,2.4,3.8,3.1c1.6,0.7,3.7,1.1,6.3,1.1
			c2.5,0,4.7-0.4,6.3-1.1c1.6-0.7,2.9-1.8,3.8-3.1c0.9-1.4,1.5-3,1.9-4.9c0.3-1.9,0.5-3.9,0.5-6.1v-37.5h24.9v42.3
			c0,5.8-1,10.5-2.9,14.4s-4.6,7-7.9,9.3c-3.4,2.3-7.3,4-11.8,5s-9.4,1.5-14.7,1.5c-5.3,0-10.2-0.5-14.8-1.5c-4.6-1-8.5-2.7-11.8-5
			s-6-5.4-7.9-9.3c-1.9-3.9-2.9-8.7-2.9-14.4v-42.3H1726.7z"/>
		<path class="st2" d="M1841.4,494.5c-0.6-3.4-2.3-6.1-5-8.1s-5.7-3-9.1-3c-3.7,0-6.8,0.9-9.6,2.8c-2.7,1.9-4.5,4.6-5.2,8.3H1841.4z
			 M1864.5,508.9h-52.4c0,5.1,1.3,9,3.9,11.6s6.5,4,11.7,4c2.7,0,5-0.5,6.9-1.4c2-1,3.6-2.6,5-5h24c-1,4.1-2.7,7.7-5,10.7
			c-2.3,3.1-5.1,5.6-8.3,7.5c-3.2,2-6.8,3.4-10.6,4.4c-3.8,1-7.8,1.4-11.8,1.4c-5.8,0-11.2-0.8-16.2-2.5c-5-1.6-9.3-4-12.9-7.2
			c-3.6-3.1-6.4-7-8.5-11.7s-3.1-10-3.1-16c0-5.8,1-11.1,2.9-15.7c1.9-4.6,4.6-8.6,8-11.8s7.5-5.7,12.2-7.4s10-2.6,15.7-2.6
			c6.1,0,11.5,0.9,16.3,2.7c4.7,1.8,8.8,4.4,12,7.8c3.3,3.4,5.8,7.5,7.5,12.3s2.6,10.2,2.6,16.2v2.7H1864.5z"/>
		<path class="st2" d="M665.8,621.6c-2.6,0-4.8,0.4-6.8,1.3c-2,0.9-3.6,2-5,3.4s-2.4,3.1-3.2,5c-0.7,1.9-1.1,4-1.1,6.2
			c0,4.5,1.4,8.2,4.2,11.2s6.7,4.5,11.8,4.5s9.1-1.5,11.8-4.5c2.8-3,4.2-6.7,4.2-11.2c0-2.2-0.4-4.2-1.1-6.2c-0.7-1.9-1.8-3.6-3.2-5
			s-3-2.6-5-3.4C670.6,622,668.4,621.6,665.8,621.6 M650.6,610.2h0.3c2.3-3.5,5.4-6.1,9.2-7.8c3.9-1.7,7.9-2.5,12-2.5
			c5.2,0,10,1,14.4,3.1s8.1,4.8,11.2,8.2c3.1,3.4,5.5,7.4,7.2,12s2.6,9.4,2.6,14.4c0,5.1-0.9,9.9-2.6,14.4
			c-1.7,4.5-4.1,8.4-7.2,11.8c-3.1,3.4-6.8,6.1-11.1,8.1s-9.1,2.9-14.3,2.9c-4.1,0-8.1-0.7-12-2.2s-7.1-3.7-9.8-6.9v39.7h-24.9
			V602.3h24.9L650.6,610.2L650.6,610.2z"/>
		<path class="st2" d="M757,621.6c-2.6,0-4.8,0.4-6.8,1.3c-2,0.9-3.6,2-5,3.4s-2.4,3.1-3.1,5c-0.7,1.9-1.1,4-1.1,6.2
			c0,4.5,1.4,8.2,4.2,11.2s6.7,4.5,11.8,4.5s9.1-1.5,11.8-4.5c2.8-3,4.2-6.7,4.2-11.2c0-2.2-0.4-4.2-1.1-6.2c-0.7-1.9-1.8-3.6-3.2-5
			s-3-2.6-5-3.4C761.8,622,759.5,621.6,757,621.6 M757,600c5.7,0,11,0.8,16.1,2.5c5.1,1.6,9.6,4.1,13.5,7.3s7,7.1,9.2,11.8
			c2.3,4.7,3.4,10,3.4,16c0,5.9-1.2,11.2-3.4,15.9c-2.3,4.7-5.4,8.6-9.2,11.8c-3.9,3.2-8.4,5.6-13.5,7.3c-5.1,1.6-10.5,2.5-16.1,2.5
			c-5.7,0-11-0.8-16.1-2.5c-5.1-1.6-9.6-4.1-13.5-7.3s-7-7.1-9.3-11.7c-2.3-4.6-3.4-9.9-3.4-15.9s1.1-11.4,3.4-16
			c2.3-4.6,5.4-8.6,9.2-11.8c3.9-3.2,8.4-5.6,13.5-7.3C745.9,600.8,751.3,600,757,600"/>
		<path class="st2" d="M835,602.3v37.5c0,2.2,0.2,4.2,0.5,6.1c0.3,1.9,0.9,3.5,1.8,4.9c0.9,1.4,2.2,2.4,3.8,3.2
			c1.7,0.7,3.8,1.1,6.3,1.1s4.7-0.4,6.3-1.1c1.6-0.7,2.9-1.8,3.8-3.2c0.9-1.4,1.5-3,1.9-4.9c0.3-1.9,0.5-3.9,0.5-6.1v-37.5h24.9
			v42.3c0,5.8-0.9,10.6-2.9,14.4c-1.9,3.9-4.6,7-7.9,9.3c-3.4,2.3-7.3,4-11.8,5s-9.4,1.5-14.7,1.5s-10.2-0.5-14.8-1.5
			s-8.5-2.7-11.8-5s-6-5.4-7.9-9.3c-1.9-3.9-2.9-8.7-2.9-14.4v-42.3H835z"/>
		<path class="st2" d="M925.6,613.8h0.3c2.4-4.4,5.5-7.6,9.4-9.5c3.9-2,8.3-3,13.3-3h4.8v24c-1.7-1-3.4-1.6-5.1-1.9
			c-1.7-0.3-3.5-0.4-5.4-0.4c-3.5,0-6.3,0.5-8.6,1.6c-2.2,1.1-4,2.6-5.3,4.5s-2.2,4.1-2.7,6.7c-0.5,2.6-0.7,5.4-0.7,8.4v28.3h-24.9
			v-70.2h24.9V613.8z"/>
		<path class="st2" d="M1044.1,638.3l16.7-36h27.9l-36.7,70.2h-15.9l-36.8-70.2h27.9L1044.1,638.3z"/>
		<path class="st2" d="M1131.9,621.6c-2.6,0-4.8,0.4-6.8,1.3c-2,0.9-3.6,2-5,3.4s-2.4,3.1-3.1,5s-1.1,4-1.1,6.2
			c0,4.5,1.4,8.2,4.2,11.2c2.8,3,6.7,4.5,11.8,4.5c5.1,0,9.1-1.5,11.8-4.5c2.8-3,4.2-6.7,4.2-11.2c0-2.2-0.4-4.2-1.1-6.2
			c-0.7-1.9-1.8-3.6-3.2-5c-1.4-1.4-3-2.6-5-3.4C1136.8,622,1134.5,621.6,1131.9,621.6 M1131.9,600c5.7,0,11,0.8,16.1,2.5
			c5.1,1.6,9.6,4.1,13.5,7.3s7,7.1,9.2,11.8c2.3,4.7,3.4,10,3.4,16c0,5.9-1.1,11.2-3.4,15.9s-5.4,8.6-9.2,11.8
			c-3.9,3.2-8.4,5.6-13.5,7.3c-5.1,1.6-10.5,2.5-16.1,2.5c-5.7,0-11-0.8-16.1-2.5c-5.1-1.6-9.6-4.1-13.5-7.3s-7-7.1-9.3-11.7
			c-2.3-4.6-3.4-9.9-3.4-15.9s1.1-11.4,3.4-16s5.4-8.6,9.2-11.8c3.9-3.2,8.4-5.6,13.5-7.3C1120.9,600.8,1126.3,600,1131.9,600"/>
		<path class="st2" d="M1210,602.3v37.5c0,2.2,0.2,4.2,0.5,6.1c0.3,1.9,0.9,3.5,1.8,4.9s2.2,2.4,3.8,3.2c1.6,0.7,3.7,1.1,6.3,1.1
			c2.5,0,4.7-0.4,6.3-1.1c1.6-0.7,2.9-1.8,3.8-3.2s1.5-3,1.9-4.9c0.3-1.9,0.5-3.9,0.5-6.1v-37.5h24.9v42.3c0,5.8-1,10.6-2.9,14.4
			c-1.9,3.9-4.6,7-7.9,9.3c-3.4,2.3-7.3,4-11.8,5s-9.4,1.5-14.7,1.5c-5.3,0-10.2-0.5-14.8-1.5c-4.6-1-8.5-2.7-11.8-5s-6-5.4-7.9-9.3
			c-1.9-3.9-2.9-8.7-2.9-14.4v-42.3H1210z"/>
		<path class="st2" d="M1322,620.3c-1.9-1-4.1-1.8-6.6-2.5c-2.5-0.6-4.8-1-6.9-1c-0.7,0-1.5,0.1-2.5,0.3c-0.9,0.2-1.8,0.4-2.5,0.8
			c-0.8,0.4-1.4,0.8-2,1.4c-0.5,0.6-0.8,1.4-0.8,2.3c0,1.2,0.4,2.2,1.3,2.9s1.9,1.3,3.1,1.7s2.4,0.7,3.7,1c1.3,0.2,2.3,0.4,3.2,0.6
			c2.9,0.5,5.6,1.3,8.1,2.4c2.5,1,4.6,2.4,6.4,4s3.3,3.6,4.3,5.9c1,2.3,1.6,5.1,1.6,8.4c0,4.7-1,8.6-2.9,11.9
			c-1.9,3.3-4.4,6-7.6,8.1c-3.1,2.1-6.7,3.7-10.6,4.6c-3.9,1-7.9,1.5-12,1.5c-5,0-9.9-0.7-14.7-2.1c-4.8-1.4-9.3-3.4-13.6-6l9-17.4
			c1.3,0.9,2.7,1.8,4.4,2.6c1.6,0.8,3.3,1.6,5.1,2.3c1.7,0.7,3.5,1.2,5.3,1.6c1.8,0.4,3.5,0.6,5,0.6c0.8,0,1.7-0.1,2.6-0.3
			s1.8-0.5,2.5-1c0.8-0.5,1.4-1,1.9-1.6s0.8-1.5,0.8-2.5c0-1.4-0.5-2.4-1.4-3.2s-2.1-1.4-3.6-1.9s-3.1-0.9-5-1.3
			c-1.9-0.4-3.8-0.8-5.7-1.4c-1.9-0.6-3.8-1.2-5.7-2c-1.9-0.8-3.5-1.9-5-3.3c-1.5-1.4-2.6-3.2-3.6-5.3c-0.9-2.1-1.4-4.7-1.4-7.9
			c0-4.3,0.9-8,2.7-11.2c1.8-3.2,4.1-5.8,7-7.8c2.9-2.1,6.2-3.6,9.9-4.5c3.7-1,7.5-1.4,11.3-1.4c4,0,8,0.3,11.8,1
			c3.9,0.7,7.6,1.8,11.3,3.5L1322,620.3z"/>
		<path class="st3" d="M333.2,528.6l-31.4-79.4l-40.9,87.7c-13.8,27.6-59,35.6-90.7,40l5.7-11.7l91.5-172.8h71.4L390,497.1
			l22.4,49.7l46.2,99.7l-31.8-0.1l-24.8-0.1c-10.4,0.1-20.6-0.6-25-11.6l-8.8-21.3l-14.7-36L333.2,528.6z"/>
		<rect x="0" y="675.2" class="st3" width="471.2" height="40.5"/>
		<path class="st4" d="M505.9,365.5L505.9,365.5l-18.9,10l-67,35.2c0,0-23.1,12.5-37.8,15.5l0.1,0.2l-0.1-0.1
			c4,12.7,8.2,20.9,12.1,27.4c1.1,1.9,2.8,3.4,4.7,4.5c2.5,1.6,5.4,2.4,8.4,2.5c2.9,0.1,6-0.5,8.7-1.9l90-48.4L505.9,365.5
			L505.9,365.5z"/>
		<path class="st2" d="M390.3,497.5l-56.8,31.4c-71.1,38.8-163.8,76.4-244,69.7c-33.9-2.8-54.3-15.6-52.3-37.2
			c2.2-24.6,23.6-50.6,61-76.5c28.6-19.9,53.7-30.6,66.9-35.3c17.2-6.1,32-8.8,47.8-9.6c3.8,0,7.4,0.3,10.1,1.1
			c-0.1-0.5-0.2-0.9-0.2-1.3l0,0c-7.2-46-19.2-52.2-38.1-51.6c-53.1,1.7-119.8,38.4-155.2,80.9c-19,22.8-28.7,50.1-29.1,69.7
			c-0.7,29.9,11.2,70.5,47.6,91.3c40.5,23.1,98.5,21.5,151.2,9.6c56.6-12.8,106-37.2,154.6-61.9l59-30.6l93.3-53.6l0.4-58.2
			L390.3,497.5z"/>
	</g>
</g>
<g id="Calque_2">
	<g>
		<g>
			<path class="st5" d="M480.3,263.7l-20-50.5l-26,55.8c-8.8,17.6-37.6,22.7-57.7,25.5l3.7-7.5l58.2-109.9h45.4l32.5,66.7l14.3,31.6
				l29.4,63.5l-20.3-0.1l-15.8-0.1c-6.6,0.1-13.1-0.4-15.9-7.4l-5.6-13.6l-9.4-22.9L480.3,263.7z"/>
		</g>
		<rect x="268.5" y="357" class="st5" width="299.8" height="25.8"/>
		<path class="st6" d="M590.2,160L590.2,160l-12,6.4l-42.6,22.4c0,0-14.7,7.9-24.1,9.9l0.1,0.1l-0.1-0.1c2.6,8.1,5.2,13.3,7.7,17.4
			c0.7,1.2,1.8,2.2,3,2.9c1.6,1,3.4,1.5,5.3,1.6c1.9,0.1,3.8-0.3,5.6-1.2l57.3-30.8L590.2,160L590.2,160z"/>
		<path class="st7" d="M516.9,244l-36.1,20c-45.3,24.7-104.2,48.6-155.2,44.4c-21.6-1.8-34.5-9.9-33.3-23.7
			c1.4-15.7,15-32.2,38.8-48.7c18.2-12.6,34.2-19.5,42.6-22.4c11-3.9,20.4-5.6,30.4-6.1c2.4,0,4.7,0.2,6.4,0.7
			c0-0.3-0.1-0.6-0.2-0.9l0,0c-4.6-29.3-12.2-33.2-24.3-32.8c-33.8,1.1-76.2,24.4-98.7,51.5c-12.1,14.5-18.2,31.9-18.5,44.3
			c-0.4,19,7.1,44.9,30.3,58.1c25.8,14.7,62.7,13.7,96.2,6.1c36-8.1,67.5-23.7,98.4-39.4l37.5-19.5l59.4-34.1l0.2-37.1L516.9,244z"
			/>
	</g>
	<g>
		<path class="st5" d="M460,432h13c13.9,0,21.5,8.8,21.5,23.6v1.7c0,14.8-7.6,23.8-21.6,23.8H460V432z M471.6,442.4v28.2h1.6
			c5.7,0,9.5-3.8,9.5-13.5v-1.3c0-9.8-3.8-13.5-9.5-13.5h-1.6V442.4z"/>
		<path class="st5" d="M499,432h27.4v10.5h-15.9v8.8h14.3v10.2h-14.3v9.1h16.2V481H499V432z"/>
		<path class="st5" d="M543.5,432h11.6v38.4h14.2V481h-25.8V432z"/>
		<path class="st5" d="M583.4,431.7h12.5l13.2,49.3h-11.8l-2.1-8.9h-11.4l-2.1,8.9h-11.5L583.4,431.7z M592.9,462.6l-3.4-15l-3.4,15
			H592.9z"/>
		<path class="st5" d="M620.9,475.3l5.7-9.3c3,2.6,6.7,5.2,10.5,5.2c2.9,0,4.4-1.8,4.4-3.9c0-1.9-1.3-3.2-5.9-5.7
			c-7.9-4.1-12.8-7.9-12.8-15.5V446c0-8.8,6.4-14.6,15.8-14.6c4.7,0,9.8,1.3,14.6,5.5l-5.9,9c-2.1-1.8-5.3-4.1-8.8-4.1
			c-2.4,0-4,1.4-4,3.3v0.1c0,2,1.4,3.3,7,6.4c7.1,3.8,11.6,7.8,11.6,15v0.3c0,8.8-6.7,14.9-15.7,14.9
			C631.8,481.6,626.2,479.9,620.9,475.3z"/>
		<path class="st5" d="M655.9,457.5v-2.1c0-15.3,7.5-24.4,18.6-24.4s18.5,9,18.5,24.3v2.1c0,15.3-7.5,24.5-18.6,24.5
			S655.9,472.9,655.9,457.5z M681.2,457.3v-1.5c0-10.1-2.8-14.2-6.8-14.2s-6.8,4.1-6.8,14.2v1.5c0,10,2.8,14.2,6.9,14.2
			C678.5,471.4,681.2,467.3,681.2,457.3z"/>
		<path class="st5" d="M696.6,457.4v-1.7c0-16,8.6-24.5,19.3-24.5c5.3,0,9.3,1.8,12.6,5l-6,9.2c-1.5-1.5-3.5-3.2-6.2-3.2
			c-4.3,0-7.9,4.3-7.9,13.9v0.4c0,10.2,3.9,14,7.9,14c2.9,0,4.8-1.7,6.6-3.4l5.7,9c-3.4,3.2-7.6,5.5-13.2,5.5
			C704.5,481.7,696.6,473.4,696.6,457.4z"/>
		<path class="st5" d="M732.1,432h11.5v49h-11.5V432z"/>
		<path class="st5" d="M749.4,432h27.4v10.5h-15.9v8.8h14.3v10.2h-14.3v9.1H777V481h-27.7v-49H749.4z M764.8,420.2l10.6,3.2
			l-8.4,6.1h-8.1L764.8,420.2z"/>
		<path class="st5" d="M789.2,442.6H780V432h30v10.7h-9.2V481h-11.6V442.6z"/>
		<path class="st5" d="M813.8,432h27.4v10.5h-15.9v8.8h14.3v10.2h-14.3v9.1h16.2V481h-27.7V432z M829.2,420.2l10.6,3.2l-8.4,6.1
			h-8.1L829.2,420.2z"/>
	</g>
	<g>
		<path class="st5" d="M617.9,356.8h27.4v10.5h-15.9v8.8h14.3v10.2h-14.3v9.1h16.2v10.5h-27.7V356.8z"/>
		<path class="st5" d="M657.7,367.5h-9.2v-10.7h30.1v10.7h-9.2v38.4h-11.6L657.7,367.5L657.7,367.5z"/>
		<path class="st5" d="M693.8,382.3v-1.7c0-16,8.6-24.5,19.3-24.5c5.3,0,9.3,1.8,12.6,5l-6,9.2c-1.5-1.5-3.5-3.2-6.2-3.2
			c-4.3,0-7.9,4.3-7.9,13.9v0.4c0,10.2,3.9,14,7.9,14c2.9,0,4.8-1.7,6.6-3.4l5.7,9c-3.4,3.2-7.6,5.5-13.2,5.5
			C701.7,406.6,693.8,398.2,693.8,382.3z"/>
		<path class="st5" d="M729,356.8h27.4v10.5h-15.9v8.8h14.3v10.2h-14.3v9.1h16.2v10.5H729V356.8z"/>
		<path class="st5" d="M761.2,356.8h11.6v38.4H787v10.7h-25.8V356.8z"/>
		<path class="st5" d="M789.5,388.8v-32h11.6v32.5c0,4.6,2,6.8,5.1,6.8s5.1-2.1,5.1-6.7v-32.6h11.5v31.9c0,12.5-6.9,18-16.7,18
			C796.3,406.7,789.5,401.2,789.5,388.8z"/>
		<path class="st5" d="M828.4,356.8h11.5v49.1h-11.5V356.8z"/>
	</g>
	<g>
		<path class="st7" d="M142.2,5h12.5l13.2,49.3h-11.8l-2.1-8.9h-11.4l-2.1,8.9H129L142.2,5z M151.8,35.9l-3.4-15l-3.4,15H151.8z"/>
		<path class="st7" d="M167.9,30.7v-2c0-15.1,8.8-24.2,20.5-24.2c5.1,0,9.2,1.5,13.5,4.7l-5.9,9.5c-1.5-1.6-3.6-3.4-7.1-3.4
			c-5.3,0-9.2,4.9-9.2,13.8v1.3c0,10.2,4.1,14.3,8.7,14.3c1.4,0,2.5-0.4,3.2-0.8V35h-5.7v-9.5h16.4v24.9c-3.9,2.5-8.6,4.5-14.3,4.5
			C176.6,54.9,167.9,46.6,167.9,30.7z"/>
		<path class="st7" d="M207.5,5.2H219v49.1h-11.5V5.2z"/>
		<path class="st7" d="M224.8,5.2h14.9c5.7,0,10.4,1.5,13.4,4.6c2.7,2.7,4.1,6.5,4.1,11.6v0.5c0,7.1-3,11.2-7.2,13.7l8.3,18.6h-12.8
			l-6.6-15.6h-2.7v15.6h-11.5v-49H224.8z M239.3,29.2c4,0,6.2-2.5,6.2-6.9V22c0-4.6-2.4-6.7-6.3-6.7h-2.9v13.9H239.3z"/>
		<path class="st7" d="M272.8,30.6v-1.7c0-16,8.6-24.5,19.3-24.5c5.3,0,9.3,1.8,12.6,5l-6,9.2c-1.5-1.5-3.5-3.2-6.2-3.2
			c-4.3,0-7.9,4.3-7.9,13.9v0.4c0,10.2,3.9,14,7.9,14c2.9,0,4.8-1.7,6.6-3.4l5.7,9c-3.4,3.2-7.6,5.5-13.2,5.5
			C280.7,54.9,272.8,46.6,272.8,30.6z"/>
		<path class="st7" d="M308.1,5.2h11.6v19h10.1v-19h11.6v49.1h-11.6V34.9h-10.1v19.3h-11.6V5.2z"/>
		<path class="st7" d="M357.2,5h12.5l13.2,49.3h-11.8l-2.1-8.9h-11.4l-2.1,8.9H344L357.2,5z M366.8,35.9l-3.4-15l-3.4,15H366.8z"/>
		<path class="st7" d="M414.6,55.4l-3-3.6c-2.9,2.2-6.3,3.4-10.1,3.4c-11,0-18.5-9.1-18.5-24.5v-2c0-15.3,7.5-24.4,18.6-24.4
			s18.5,9,18.5,24.3v2.1c0,5.6-1.1,10.4-2.9,14.2l4.3,4.8L414.6,55.4z M404.6,44l-4.8-5.2l6.8-5.7l1.5,1.8c0.1-1.3,0.2-2.7,0.2-4.2
			v-1.8c0-10.1-2.9-14.2-6.9-14.2c-4.1,0-6.9,4.1-6.9,14.1v1.8c0,10.4,2.9,14.2,7.1,14.2C402.8,44.8,403.8,44.6,404.6,44z"/>
		<path class="st7" d="M424.5,37.2v-32h11.6v32.5c0,4.6,2,6.8,5.1,6.8s5.1-2.1,5.1-6.7V5.2h11.5v31.9c0,12.5-6.9,18-16.7,18
			S424.5,49.5,424.5,37.2z"/>
		<path class="st7" d="M463.2,5.2h27.4v10.5h-15.9v8.8H489v10.2h-14.3v9.1h16.2v10.5h-27.7V5.2z"/>
	</g>
	<g>
		<path class="st7" d="M0.1,124l5.1-8.8c1.3,1.4,2.7,2.5,4.7,2.5c2.3,0,4-1.6,4-5.3V78.8h11.5V113c0,5.3-1.3,9-4,11.7
			c-2.5,2.5-5.9,3.8-10.2,3.8C6.6,128.5,2.6,126.4,0.1,124z"/>
		<path class="st7" d="M29.8,104.3v-2.1c0-15.3,7.5-24.4,18.6-24.4s18.5,9,18.5,24.3v2.1c0,15.3-7.5,24.5-18.6,24.5
			S29.8,119.6,29.8,104.3z M55.1,104v-1.5c0-10.1-2.8-14.2-6.8-14.2s-6.8,4.1-6.8,14.2v1.5c0,10,2.8,14.2,6.9,14.2
			C52.3,118.2,55.1,114,55.1,104z"/>
		<path class="st7" d="M71.1,110.7v-32h11.6v32.5c0,4.6,2,6.8,5.1,6.8s5.1-2.1,5.1-6.7V78.7h11.5v31.9c0,12.5-6.9,18-16.7,18
			S71.1,123.1,71.1,110.7z"/>
		<path class="st7" d="M109.8,78.7h14.9c5.7,0,10.4,1.5,13.4,4.6c2.7,2.7,4.1,6.5,4.1,11.6v0.5c0,7.1-3,11.2-7.2,13.7l8.3,18.6
			h-12.8l-6.6-15.6h-2.7v15.6h-11.5L109.8,78.7L109.8,78.7z M124.3,102.8c4,0,6.2-2.5,6.2-6.9v-0.3c0-4.6-2.4-6.7-6.3-6.7h-2.9v13.9
			H124.3z"/>
		<path class="st7" d="M158.8,78.7h13c13.9,0,21.5,8.8,21.5,23.6v1.7c0,14.8-7.6,23.8-21.6,23.8h-12.9V78.7z M170.4,89.2v28.2h1.6
			c5.7,0,9.5-3.8,9.5-13.5v-1.3c0-9.8-3.8-13.5-9.5-13.5h-1.6V89.2z"/>
		<path class="st7" d="M206.3,78.5h12.5l13.2,49.3h-11.8l-2.1-8.9h-11.4l-2.1,8.9h-11.5L206.3,78.5z M215.8,109.4l-3.4-15l-3.4,15
			H215.8z"/>
		<path class="st7" d="M234.8,78.7h10.9l12,23.3V78.7h11.2v49.1h-10.4L246,103.4v24.4h-11.2V78.7z"/>
		<path class="st7" d="M271.2,122.1l5.7-9.3c3,2.6,6.7,5.2,10.5,5.2c2.9,0,4.4-1.8,4.4-3.9c0-1.9-1.3-3.2-5.9-5.7
			c-7.9-4.1-12.8-7.9-12.8-15.5v-0.2c0-8.8,6.4-14.6,15.8-14.6c4.7,0,9.8,1.3,14.6,5.5l-5.9,9c-2.1-1.8-5.3-4.1-8.8-4.1
			c-2.4,0-4,1.4-4,3.3v0.1c0,2,1.4,3.3,7,6.4c7.1,3.8,11.6,7.8,11.6,15v0.3c0,8.8-6.7,14.9-15.7,14.9
			C282.1,128.4,276.5,126.6,271.2,122.1z"/>
		<path class="st7" d="M317,78.7h12.2l6.6,29.9l6.5-29.9h11.9L341.4,128h-11.6L317,78.7z"/>
		<path class="st7" d="M354.2,104.3v-2.1c0-15.3,7.5-24.4,18.6-24.4s18.5,9,18.5,24.3v2.1c0,15.3-7.5,24.5-18.6,24.5
			C361.7,128.7,354.2,119.6,354.2,104.3z M379.5,104v-1.5c0-10.1-2.8-14.2-6.8-14.2s-6.8,4.1-6.8,14.2v1.5c0,10,2.8,14.2,6.9,14.2
			C376.8,118.2,379.5,114,379.5,104z"/>
		<path class="st7" d="M401.8,89.4h-9.2V78.7h30.1v10.7h-9.2v38.4h-11.6L401.8,89.4L401.8,89.4z"/>
		<path class="st7" d="M426.5,78.7h14.9c5.7,0,10.4,1.5,13.4,4.6c2.7,2.7,4.1,6.5,4.1,11.6v0.5c0,7.1-3,11.2-7.2,13.7l8.3,18.6
			h-12.8l-6.6-15.6H438v15.6h-11.5V78.7z M441,102.8c4,0,6.2-2.5,6.2-6.9v-0.3c0-4.6-2.4-6.7-6.3-6.7H438v13.9H441z"/>
		<path class="st7" d="M463.2,78.7h27.4v10.5h-15.9V98H489v10.2h-14.3v9.1h16.2v10.5h-27.7V78.7z"/>
	</g>
	<g>
		<path class="st7" d="M1.1,151h11.5v49.1H1.1V151z"/>
		<path class="st7" d="M18.4,151h10.9l12,23.3V151h11.2v49.1H42.2l-12.5-24.4v24.4H18.4V151z"/>
		<path class="st7" d="M65.7,161.7h-9.2V151h30.1v10.7h-9.2v38.4H65.7V161.7z"/>
		<path class="st7" d="M90.4,151h27.4v10.5h-15.9v8.8h14.3v10.2h-14.3v9.1H118v10.5H90.4V151z M105.8,139.3l10.6,3.2l-8.4,6.1h-8.1
			L105.8,139.3z"/>
		<path class="st7" d="M122.6,151h14.9c5.7,0,10.4,1.5,13.4,4.6c2.7,2.7,4.1,6.5,4.1,11.6v0.5c0,7.1-3,11.2-7.2,13.7l8.3,18.6h-12.8
			l-6.6-15.6H134V200h-11.5L122.6,151L122.6,151z M137.1,175.1c4,0,6.2-2.5,6.2-6.9v-0.3c0-4.6-2.4-6.7-6.3-6.7h-2.9v13.9H137.1z"/>
		<path class="st7" d="M159.3,151h27.4v10.5h-15.9v8.8h14.3v10.2h-14.3v9.1H187v10.5h-27.7V151z M168.6,140h9.2l6.4,8.6h-7.3
			l-3.8-3.1l-3.7,3.1h-7.2L168.6,140z"/>
		<path class="st7" d="M199.1,161.7h-9.2V151H220v10.7h-9.2v38.4h-11.6v-38.4H199.1z"/>
	</g>
</g>
</svg>
